<mxfile host="Electron" agent="Mozilla/5.0 (Macintosh; Intel Mac OS X 10_15_7) AppleWebKit/537.36 (KHTML, like Gecko) draw.io/25.0.2 Chrome/128.0.6613.186 Electron/32.2.5 Safari/537.36" version="25.0.2">
  <diagram name="Page-1" id="gNxw8MddvVBNjZTbIHWo">
    <mxGraphModel dx="1114" dy="999" grid="1" gridSize="10" guides="1" tooltips="1" connect="1" arrows="1" fold="1" page="1" pageScale="1" pageWidth="850" pageHeight="1100" math="0" shadow="0">
      <root>
        <mxCell id="0" />
        <mxCell id="1" parent="0" />
        <mxCell id="H3SU6zbXUFuWfZ92cG2d-4" value="&lt;font style=&quot;font-size: 16px;&quot;&gt;Winners Bracket&lt;/font&gt;" style="text;html=1;align=center;verticalAlign=middle;whiteSpace=wrap;rounded=0;" parent="1" vertex="1">
          <mxGeometry x="39" y="93" width="120" height="30" as="geometry" />
        </mxCell>
        <mxCell id="H3SU6zbXUFuWfZ92cG2d-8" value="" style="group" parent="1" vertex="1" connectable="0">
          <mxGeometry x="219" y="170" width="320" height="70" as="geometry" />
        </mxCell>
        <mxCell id="H3SU6zbXUFuWfZ92cG2d-1" value="" style="endArrow=none;html=1;rounded=0;" parent="H3SU6zbXUFuWfZ92cG2d-8" edge="1">
          <mxGeometry width="50" height="50" relative="1" as="geometry">
            <mxPoint as="sourcePoint" />
            <mxPoint x="160" as="targetPoint" />
          </mxGeometry>
        </mxCell>
        <mxCell id="H3SU6zbXUFuWfZ92cG2d-2" value="" style="endArrow=none;html=1;rounded=0;" parent="H3SU6zbXUFuWfZ92cG2d-8" edge="1">
          <mxGeometry width="50" height="50" relative="1" as="geometry">
            <mxPoint y="70" as="sourcePoint" />
            <mxPoint x="160" y="70" as="targetPoint" />
          </mxGeometry>
        </mxCell>
        <mxCell id="H3SU6zbXUFuWfZ92cG2d-3" value="" style="endArrow=none;html=1;rounded=0;" parent="H3SU6zbXUFuWfZ92cG2d-8" edge="1">
          <mxGeometry width="50" height="50" relative="1" as="geometry">
            <mxPoint x="160" y="70" as="sourcePoint" />
            <mxPoint x="160" as="targetPoint" />
          </mxGeometry>
        </mxCell>
        <mxCell id="H3SU6zbXUFuWfZ92cG2d-5" value="Race 4" style="text;html=1;align=right;verticalAlign=middle;whiteSpace=wrap;rounded=0;" parent="H3SU6zbXUFuWfZ92cG2d-8" vertex="1">
          <mxGeometry x="60" y="20" width="90" height="30" as="geometry" />
        </mxCell>
        <mxCell id="H3SU6zbXUFuWfZ92cG2d-7" value="" style="endArrow=none;html=1;rounded=0;" parent="H3SU6zbXUFuWfZ92cG2d-8" edge="1">
          <mxGeometry width="50" height="50" relative="1" as="geometry">
            <mxPoint x="160" y="36" as="sourcePoint" />
            <mxPoint x="320" y="36" as="targetPoint" />
          </mxGeometry>
        </mxCell>
        <mxCell id="H3SU6zbXUFuWfZ92cG2d-9" value="" style="group" parent="1" vertex="1" connectable="0">
          <mxGeometry x="219" y="370" width="360" height="70" as="geometry" />
        </mxCell>
        <mxCell id="H3SU6zbXUFuWfZ92cG2d-10" value="" style="endArrow=none;html=1;rounded=0;" parent="H3SU6zbXUFuWfZ92cG2d-9" edge="1">
          <mxGeometry width="50" height="50" relative="1" as="geometry">
            <mxPoint as="sourcePoint" />
            <mxPoint x="160" as="targetPoint" />
          </mxGeometry>
        </mxCell>
        <mxCell id="H3SU6zbXUFuWfZ92cG2d-11" value="" style="endArrow=none;html=1;rounded=0;" parent="H3SU6zbXUFuWfZ92cG2d-9" edge="1">
          <mxGeometry width="50" height="50" relative="1" as="geometry">
            <mxPoint x="-49" y="130" as="sourcePoint" />
            <mxPoint x="160" y="130" as="targetPoint" />
          </mxGeometry>
        </mxCell>
        <mxCell id="H3SU6zbXUFuWfZ92cG2d-12" value="" style="endArrow=none;html=1;rounded=0;" parent="H3SU6zbXUFuWfZ92cG2d-9" edge="1">
          <mxGeometry width="50" height="50" relative="1" as="geometry">
            <mxPoint x="160" y="70" as="sourcePoint" />
            <mxPoint x="160" as="targetPoint" />
          </mxGeometry>
        </mxCell>
        <mxCell id="H3SU6zbXUFuWfZ92cG2d-13" value="Race 5" style="text;html=1;align=right;verticalAlign=middle;whiteSpace=wrap;rounded=0;" parent="H3SU6zbXUFuWfZ92cG2d-9" vertex="1">
          <mxGeometry x="60" y="47" width="90" height="30" as="geometry" />
        </mxCell>
        <mxCell id="H3SU6zbXUFuWfZ92cG2d-14" value="" style="endArrow=none;html=1;rounded=0;" parent="H3SU6zbXUFuWfZ92cG2d-9" edge="1">
          <mxGeometry width="50" height="50" relative="1" as="geometry">
            <mxPoint x="160" y="64" as="sourcePoint" />
            <mxPoint x="320" y="64" as="targetPoint" />
          </mxGeometry>
        </mxCell>
        <mxCell id="H3SU6zbXUFuWfZ92cG2d-38" value="Winner Race 3" style="text;html=1;align=center;verticalAlign=middle;whiteSpace=wrap;rounded=0;" parent="H3SU6zbXUFuWfZ92cG2d-9" vertex="1">
          <mxGeometry x="270" y="29" width="90" height="30" as="geometry" />
        </mxCell>
        <mxCell id="H3SU6zbXUFuWfZ92cG2d-15" value="" style="group" parent="1" vertex="1" connectable="0">
          <mxGeometry x="388" y="790" width="320" height="70" as="geometry" />
        </mxCell>
        <mxCell id="H3SU6zbXUFuWfZ92cG2d-16" value="" style="endArrow=none;html=1;rounded=0;" parent="H3SU6zbXUFuWfZ92cG2d-15" edge="1">
          <mxGeometry width="50" height="50" relative="1" as="geometry">
            <mxPoint as="sourcePoint" />
            <mxPoint x="160" as="targetPoint" />
          </mxGeometry>
        </mxCell>
        <mxCell id="H3SU6zbXUFuWfZ92cG2d-17" value="" style="endArrow=none;html=1;rounded=0;" parent="H3SU6zbXUFuWfZ92cG2d-15" edge="1">
          <mxGeometry width="50" height="50" relative="1" as="geometry">
            <mxPoint y="70" as="sourcePoint" />
            <mxPoint x="160" y="70" as="targetPoint" />
          </mxGeometry>
        </mxCell>
        <mxCell id="H3SU6zbXUFuWfZ92cG2d-18" value="" style="endArrow=none;html=1;rounded=0;" parent="H3SU6zbXUFuWfZ92cG2d-15" edge="1">
          <mxGeometry width="50" height="50" relative="1" as="geometry">
            <mxPoint x="160" y="70" as="sourcePoint" />
            <mxPoint x="160" as="targetPoint" />
          </mxGeometry>
        </mxCell>
        <mxCell id="H3SU6zbXUFuWfZ92cG2d-19" value="Race 6" style="text;html=1;align=right;verticalAlign=middle;whiteSpace=wrap;rounded=0;" parent="H3SU6zbXUFuWfZ92cG2d-15" vertex="1">
          <mxGeometry x="60" y="20" width="90" height="30" as="geometry" />
        </mxCell>
        <mxCell id="H3SU6zbXUFuWfZ92cG2d-20" value="" style="endArrow=none;html=1;rounded=0;" parent="H3SU6zbXUFuWfZ92cG2d-15" edge="1">
          <mxGeometry width="50" height="50" relative="1" as="geometry">
            <mxPoint x="160" y="36" as="sourcePoint" />
            <mxPoint x="412" y="36" as="targetPoint" />
          </mxGeometry>
        </mxCell>
        <mxCell id="H3SU6zbXUFuWfZ92cG2d-21" value="&lt;font style=&quot;font-size: 16px;&quot;&gt;Loser Races&lt;/font&gt;" style="text;html=1;align=center;verticalAlign=middle;whiteSpace=wrap;rounded=0;" parent="1" vertex="1">
          <mxGeometry x="39" y="586" width="151" height="30" as="geometry" />
        </mxCell>
        <mxCell id="H3SU6zbXUFuWfZ92cG2d-22" value="Race 8" style="text;html=1;align=right;verticalAlign=middle;whiteSpace=wrap;rounded=0;" parent="1" vertex="1">
          <mxGeometry x="522" y="300" width="90" height="30" as="geometry" />
        </mxCell>
        <mxCell id="H3SU6zbXUFuWfZ92cG2d-24" value="" style="endArrow=none;html=1;rounded=0;" parent="1" edge="1">
          <mxGeometry width="50" height="50" relative="1" as="geometry">
            <mxPoint x="616" y="434" as="sourcePoint" />
            <mxPoint x="616" y="206" as="targetPoint" />
          </mxGeometry>
        </mxCell>
        <mxCell id="H3SU6zbXUFuWfZ92cG2d-25" value="" style="endArrow=none;html=1;rounded=0;" parent="1" edge="1">
          <mxGeometry width="50" height="50" relative="1" as="geometry">
            <mxPoint x="616" y="276" as="sourcePoint" />
            <mxPoint x="800" y="276" as="targetPoint" />
          </mxGeometry>
        </mxCell>
        <mxCell id="H3SU6zbXUFuWfZ92cG2d-26" value="" style="endArrow=none;html=1;rounded=0;" parent="1" edge="1">
          <mxGeometry width="50" height="50" relative="1" as="geometry">
            <mxPoint x="637" y="386" as="sourcePoint" />
            <mxPoint x="797" y="386" as="targetPoint" />
          </mxGeometry>
        </mxCell>
        <mxCell id="H3SU6zbXUFuWfZ92cG2d-28" value="1st Place" style="text;html=1;align=center;verticalAlign=middle;whiteSpace=wrap;rounded=0;" parent="1" vertex="1">
          <mxGeometry x="674" y="275" width="90" height="30" as="geometry" />
        </mxCell>
        <mxCell id="H3SU6zbXUFuWfZ92cG2d-29" value="2nd Place" style="text;html=1;align=center;verticalAlign=middle;whiteSpace=wrap;rounded=0;" parent="1" vertex="1">
          <mxGeometry x="674" y="386" width="90" height="30" as="geometry" />
        </mxCell>
        <mxCell id="H3SU6zbXUFuWfZ92cG2d-31" value="5th Pace" style="text;html=1;align=center;verticalAlign=middle;whiteSpace=wrap;rounded=0;" parent="1" vertex="1">
          <mxGeometry x="674" y="726" width="90" height="30" as="geometry" />
        </mxCell>
        <mxCell id="H3SU6zbXUFuWfZ92cG2d-32" value="Winner Race 8" style="text;html=1;align=center;verticalAlign=middle;whiteSpace=wrap;rounded=0;" parent="1" vertex="1">
          <mxGeometry x="674" y="245" width="90" height="30" as="geometry" />
        </mxCell>
        <mxCell id="H3SU6zbXUFuWfZ92cG2d-33" value="Loser Race 8" style="text;html=1;align=center;verticalAlign=middle;whiteSpace=wrap;rounded=0;" parent="1" vertex="1">
          <mxGeometry x="674" y="356" width="90" height="30" as="geometry" />
        </mxCell>
        <mxCell id="H3SU6zbXUFuWfZ92cG2d-36" value="Loser Race 7" style="text;html=1;align=center;verticalAlign=middle;whiteSpace=wrap;rounded=0;" parent="1" vertex="1">
          <mxGeometry x="674" y="696" width="90" height="30" as="geometry" />
        </mxCell>
        <mxCell id="H3SU6zbXUFuWfZ92cG2d-37" value="Winner Race 4" style="text;html=1;align=center;verticalAlign=middle;whiteSpace=wrap;rounded=0;" parent="1" vertex="1">
          <mxGeometry x="489" y="176" width="90" height="30" as="geometry" />
        </mxCell>
        <mxCell id="H3SU6zbXUFuWfZ92cG2d-39" value="Loser Race 3" style="text;html=1;align=center;verticalAlign=middle;whiteSpace=wrap;rounded=0;" parent="1" vertex="1">
          <mxGeometry x="419" y="760" width="90" height="30" as="geometry" />
        </mxCell>
        <mxCell id="H3SU6zbXUFuWfZ92cG2d-40" value="Loser Race 2" style="text;html=1;align=center;verticalAlign=middle;whiteSpace=wrap;rounded=0;" parent="1" vertex="1">
          <mxGeometry x="419" y="830" width="90" height="30" as="geometry" />
        </mxCell>
        <mxCell id="H3SU6zbXUFuWfZ92cG2d-41" value="Bracket Seed 1" style="text;html=1;align=center;verticalAlign=middle;whiteSpace=wrap;rounded=0;" parent="1" vertex="1">
          <mxGeometry x="249" y="140" width="90" height="30" as="geometry" />
        </mxCell>
        <mxCell id="H3SU6zbXUFuWfZ92cG2d-42" value="Winner Race 1" style="text;html=1;align=center;verticalAlign=middle;whiteSpace=wrap;rounded=0;" parent="1" vertex="1">
          <mxGeometry x="249" y="210" width="90" height="30" as="geometry" />
        </mxCell>
        <mxCell id="H3SU6zbXUFuWfZ92cG2d-43" value="Winner Race 2" style="text;html=1;align=center;verticalAlign=middle;whiteSpace=wrap;rounded=0;" parent="1" vertex="1">
          <mxGeometry x="249" y="340" width="90" height="30" as="geometry" />
        </mxCell>
        <mxCell id="H3SU6zbXUFuWfZ92cG2d-44" value="Bracket Seed 3" style="text;html=1;align=center;verticalAlign=middle;whiteSpace=wrap;rounded=0;" parent="1" vertex="1">
          <mxGeometry x="249" y="470" width="90" height="30" as="geometry" />
        </mxCell>
        <mxCell id="IuvQdy2Z3pqtqVISLEcr-1" value="" style="group" parent="1" vertex="1" connectable="0">
          <mxGeometry x="19" y="334" width="320" height="70" as="geometry" />
        </mxCell>
        <mxCell id="IuvQdy2Z3pqtqVISLEcr-2" value="" style="endArrow=none;html=1;rounded=0;" parent="IuvQdy2Z3pqtqVISLEcr-1" edge="1">
          <mxGeometry width="50" height="50" relative="1" as="geometry">
            <mxPoint as="sourcePoint" />
            <mxPoint x="160" as="targetPoint" />
          </mxGeometry>
        </mxCell>
        <mxCell id="IuvQdy2Z3pqtqVISLEcr-3" value="" style="endArrow=none;html=1;rounded=0;" parent="IuvQdy2Z3pqtqVISLEcr-1" edge="1">
          <mxGeometry width="50" height="50" relative="1" as="geometry">
            <mxPoint y="70" as="sourcePoint" />
            <mxPoint x="160" y="70" as="targetPoint" />
          </mxGeometry>
        </mxCell>
        <mxCell id="IuvQdy2Z3pqtqVISLEcr-4" value="" style="endArrow=none;html=1;rounded=0;" parent="IuvQdy2Z3pqtqVISLEcr-1" edge="1">
          <mxGeometry width="50" height="50" relative="1" as="geometry">
            <mxPoint x="160" y="70" as="sourcePoint" />
            <mxPoint x="160" as="targetPoint" />
          </mxGeometry>
        </mxCell>
        <mxCell id="IuvQdy2Z3pqtqVISLEcr-5" value="Race 2" style="text;html=1;align=right;verticalAlign=middle;whiteSpace=wrap;rounded=0;" parent="IuvQdy2Z3pqtqVISLEcr-1" vertex="1">
          <mxGeometry x="60" y="20" width="90" height="30" as="geometry" />
        </mxCell>
        <mxCell id="IuvQdy2Z3pqtqVISLEcr-6" value="" style="endArrow=none;html=1;rounded=0;" parent="IuvQdy2Z3pqtqVISLEcr-1" edge="1">
          <mxGeometry width="50" height="50" relative="1" as="geometry">
            <mxPoint x="160" y="36" as="sourcePoint" />
            <mxPoint x="320" y="36" as="targetPoint" />
          </mxGeometry>
        </mxCell>
        <mxCell id="IuvQdy2Z3pqtqVISLEcr-9" value="Winner Race 6" style="text;html=1;align=center;verticalAlign=middle;whiteSpace=wrap;rounded=0;" parent="1" vertex="1">
          <mxGeometry x="674" y="796" width="90" height="30" as="geometry" />
        </mxCell>
        <mxCell id="IuvQdy2Z3pqtqVISLEcr-14" value="Bracket Seed 3" style="text;html=1;align=center;verticalAlign=middle;whiteSpace=wrap;rounded=0;" parent="1" vertex="1">
          <mxGeometry x="49" y="304" width="90" height="30" as="geometry" />
        </mxCell>
        <mxCell id="IuvQdy2Z3pqtqVISLEcr-15" value="Bracket Seed 6" style="text;html=1;align=center;verticalAlign=middle;whiteSpace=wrap;rounded=0;" parent="1" vertex="1">
          <mxGeometry x="49" y="374" width="90" height="30" as="geometry" />
        </mxCell>
        <mxCell id="IuvQdy2Z3pqtqVISLEcr-16" value="" style="endArrow=none;html=1;rounded=0;" parent="1" edge="1">
          <mxGeometry width="50" height="50" relative="1" as="geometry">
            <mxPoint x="538" y="206" as="sourcePoint" />
            <mxPoint x="616" y="206" as="targetPoint" />
          </mxGeometry>
        </mxCell>
        <mxCell id="IuvQdy2Z3pqtqVISLEcr-17" value="" style="endArrow=none;html=1;rounded=0;" parent="1" edge="1">
          <mxGeometry width="50" height="50" relative="1" as="geometry">
            <mxPoint x="538" y="434" as="sourcePoint" />
            <mxPoint x="616" y="434" as="targetPoint" />
          </mxGeometry>
        </mxCell>
        <mxCell id="IuvQdy2Z3pqtqVISLEcr-18" value="" style="endArrow=none;html=1;rounded=0;" parent="1" edge="1">
          <mxGeometry width="50" height="50" relative="1" as="geometry">
            <mxPoint x="637" y="726" as="sourcePoint" />
            <mxPoint x="797" y="726" as="targetPoint" />
          </mxGeometry>
        </mxCell>
        <mxCell id="Z-EwFcKrp6Wiq-JpFyMq-1" value="" style="group" parent="1" vertex="1" connectable="0">
          <mxGeometry x="19" y="134" width="320" height="70" as="geometry" />
        </mxCell>
        <mxCell id="Z-EwFcKrp6Wiq-JpFyMq-2" value="" style="endArrow=none;html=1;rounded=0;" parent="Z-EwFcKrp6Wiq-JpFyMq-1" edge="1">
          <mxGeometry width="50" height="50" relative="1" as="geometry">
            <mxPoint y="70" as="sourcePoint" />
            <mxPoint x="160" y="70" as="targetPoint" />
          </mxGeometry>
        </mxCell>
        <mxCell id="Z-EwFcKrp6Wiq-JpFyMq-3" value="" style="endArrow=none;html=1;rounded=0;" parent="Z-EwFcKrp6Wiq-JpFyMq-1" edge="1">
          <mxGeometry width="50" height="50" relative="1" as="geometry">
            <mxPoint y="140" as="sourcePoint" />
            <mxPoint x="160" y="140" as="targetPoint" />
          </mxGeometry>
        </mxCell>
        <mxCell id="Z-EwFcKrp6Wiq-JpFyMq-4" value="" style="endArrow=none;html=1;rounded=0;" parent="Z-EwFcKrp6Wiq-JpFyMq-1" edge="1">
          <mxGeometry width="50" height="50" relative="1" as="geometry">
            <mxPoint x="160" y="140" as="sourcePoint" />
            <mxPoint x="160" y="70" as="targetPoint" />
          </mxGeometry>
        </mxCell>
        <mxCell id="Z-EwFcKrp6Wiq-JpFyMq-5" value="Race 1" style="text;html=1;align=right;verticalAlign=middle;whiteSpace=wrap;rounded=0;" parent="Z-EwFcKrp6Wiq-JpFyMq-1" vertex="1">
          <mxGeometry x="60" y="90" width="90" height="30" as="geometry" />
        </mxCell>
        <mxCell id="Z-EwFcKrp6Wiq-JpFyMq-6" value="" style="endArrow=none;html=1;rounded=0;" parent="Z-EwFcKrp6Wiq-JpFyMq-1" edge="1">
          <mxGeometry width="50" height="50" relative="1" as="geometry">
            <mxPoint x="160" y="106" as="sourcePoint" />
            <mxPoint x="320" y="106" as="targetPoint" />
          </mxGeometry>
        </mxCell>
        <mxCell id="Z-EwFcKrp6Wiq-JpFyMq-7" value="" style="group" parent="1" vertex="1" connectable="0">
          <mxGeometry x="388" y="610" width="320" height="70" as="geometry" />
        </mxCell>
        <mxCell id="Z-EwFcKrp6Wiq-JpFyMq-8" value="" style="endArrow=none;html=1;rounded=0;" parent="Z-EwFcKrp6Wiq-JpFyMq-7" edge="1">
          <mxGeometry width="50" height="50" relative="1" as="geometry">
            <mxPoint as="sourcePoint" />
            <mxPoint x="160" as="targetPoint" />
          </mxGeometry>
        </mxCell>
        <mxCell id="Z-EwFcKrp6Wiq-JpFyMq-9" value="" style="endArrow=none;html=1;rounded=0;" parent="Z-EwFcKrp6Wiq-JpFyMq-7" edge="1">
          <mxGeometry width="50" height="50" relative="1" as="geometry">
            <mxPoint y="70" as="sourcePoint" />
            <mxPoint x="160" y="70" as="targetPoint" />
          </mxGeometry>
        </mxCell>
        <mxCell id="Z-EwFcKrp6Wiq-JpFyMq-10" value="" style="endArrow=none;html=1;rounded=0;" parent="Z-EwFcKrp6Wiq-JpFyMq-7" edge="1">
          <mxGeometry width="50" height="50" relative="1" as="geometry">
            <mxPoint x="160" y="70" as="sourcePoint" />
            <mxPoint x="160" as="targetPoint" />
          </mxGeometry>
        </mxCell>
        <mxCell id="Z-EwFcKrp6Wiq-JpFyMq-11" value="Race 7" style="text;html=1;align=right;verticalAlign=middle;whiteSpace=wrap;rounded=0;" parent="Z-EwFcKrp6Wiq-JpFyMq-7" vertex="1">
          <mxGeometry x="60" y="20" width="90" height="30" as="geometry" />
        </mxCell>
        <mxCell id="Z-EwFcKrp6Wiq-JpFyMq-12" value="" style="endArrow=none;html=1;rounded=0;" parent="Z-EwFcKrp6Wiq-JpFyMq-7" edge="1">
          <mxGeometry width="50" height="50" relative="1" as="geometry">
            <mxPoint x="160" y="36" as="sourcePoint" />
            <mxPoint x="412" y="36" as="targetPoint" />
          </mxGeometry>
        </mxCell>
        <mxCell id="Z-EwFcKrp6Wiq-JpFyMq-13" value="Loser Race 1" style="text;html=1;align=center;verticalAlign=middle;whiteSpace=wrap;rounded=0;" parent="1" vertex="1">
          <mxGeometry x="419" y="580" width="90" height="30" as="geometry" />
        </mxCell>
        <mxCell id="Z-EwFcKrp6Wiq-JpFyMq-14" value="Loser Race 4" style="text;html=1;align=center;verticalAlign=middle;whiteSpace=wrap;rounded=0;" parent="1" vertex="1">
          <mxGeometry x="419" y="650" width="90" height="30" as="geometry" />
        </mxCell>
        <mxCell id="Z-EwFcKrp6Wiq-JpFyMq-15" value="Winner Race 7" style="text;html=1;align=center;verticalAlign=middle;whiteSpace=wrap;rounded=0;" parent="1" vertex="1">
          <mxGeometry x="674" y="616" width="90" height="30" as="geometry" />
        </mxCell>
        <mxCell id="Z-EwFcKrp6Wiq-JpFyMq-16" value="Bracket Seed 4" style="text;html=1;align=center;verticalAlign=middle;whiteSpace=wrap;rounded=0;" parent="1" vertex="1">
          <mxGeometry x="49" y="174" width="90" height="30" as="geometry" />
        </mxCell>
        <mxCell id="Z-EwFcKrp6Wiq-JpFyMq-17" value="Bracket Seed 5" style="text;html=1;align=center;verticalAlign=middle;whiteSpace=wrap;rounded=0;" parent="1" vertex="1">
          <mxGeometry x="49" y="244" width="90" height="30" as="geometry" />
        </mxCell>
        <mxCell id="Z-EwFcKrp6Wiq-JpFyMq-18" value="4th Place" style="text;html=1;align=center;verticalAlign=middle;whiteSpace=wrap;rounded=0;" parent="1" vertex="1">
          <mxGeometry x="674" y="646" width="90" height="30" as="geometry" />
        </mxCell>
        <mxCell id="Z-EwFcKrp6Wiq-JpFyMq-19" value="6th Pace" style="text;html=1;align=center;verticalAlign=middle;whiteSpace=wrap;rounded=0;" parent="1" vertex="1">
          <mxGeometry x="674" y="826" width="90" height="30" as="geometry" />
        </mxCell>
        <mxCell id="Z-EwFcKrp6Wiq-JpFyMq-20" value="7th Pace" style="text;html=1;align=center;verticalAlign=middle;whiteSpace=wrap;rounded=0;" parent="1" vertex="1">
          <mxGeometry x="674" y="916" width="90" height="30" as="geometry" />
        </mxCell>
        <mxCell id="Z-EwFcKrp6Wiq-JpFyMq-21" value="Loser Race 6" style="text;html=1;align=center;verticalAlign=middle;whiteSpace=wrap;rounded=0;" parent="1" vertex="1">
          <mxGeometry x="674" y="886" width="90" height="30" as="geometry" />
        </mxCell>
        <mxCell id="Z-EwFcKrp6Wiq-JpFyMq-22" value="" style="endArrow=none;html=1;rounded=0;" parent="1" edge="1">
          <mxGeometry width="50" height="50" relative="1" as="geometry">
            <mxPoint x="637" y="916" as="sourcePoint" />
            <mxPoint x="797" y="916" as="targetPoint" />
          </mxGeometry>
        </mxCell>
        <mxCell id="csj1tmw9l9uNEUCIM7JJ-1" value="" style="endArrow=none;html=1;rounded=0;" edge="1" parent="1">
          <mxGeometry width="50" height="50" relative="1" as="geometry">
            <mxPoint x="9" y="464" as="sourcePoint" />
            <mxPoint x="169" y="464" as="targetPoint" />
          </mxGeometry>
        </mxCell>
        <mxCell id="csj1tmw9l9uNEUCIM7JJ-2" value="" style="endArrow=none;html=1;rounded=0;" edge="1" parent="1">
          <mxGeometry width="50" height="50" relative="1" as="geometry">
            <mxPoint x="9" y="534" as="sourcePoint" />
            <mxPoint x="169" y="534" as="targetPoint" />
          </mxGeometry>
        </mxCell>
        <mxCell id="csj1tmw9l9uNEUCIM7JJ-3" value="" style="endArrow=none;html=1;rounded=0;" edge="1" parent="1">
          <mxGeometry width="50" height="50" relative="1" as="geometry">
            <mxPoint x="169" y="534" as="sourcePoint" />
            <mxPoint x="169" y="464" as="targetPoint" />
          </mxGeometry>
        </mxCell>
        <mxCell id="csj1tmw9l9uNEUCIM7JJ-4" value="Race 3" style="text;html=1;align=right;verticalAlign=middle;whiteSpace=wrap;rounded=0;" vertex="1" parent="1">
          <mxGeometry x="69" y="484" width="90" height="30" as="geometry" />
        </mxCell>
        <mxCell id="csj1tmw9l9uNEUCIM7JJ-5" value="Bracket Seed 2" style="text;html=1;align=center;verticalAlign=middle;whiteSpace=wrap;rounded=0;" vertex="1" parent="1">
          <mxGeometry x="39" y="434" width="90" height="30" as="geometry" />
        </mxCell>
        <mxCell id="csj1tmw9l9uNEUCIM7JJ-6" value="Bracket Seed 7" style="text;html=1;align=center;verticalAlign=middle;whiteSpace=wrap;rounded=0;" vertex="1" parent="1">
          <mxGeometry x="39" y="504" width="90" height="30" as="geometry" />
        </mxCell>
        <mxCell id="csj1tmw9l9uNEUCIM7JJ-8" value="" style="endArrow=none;html=1;rounded=0;" edge="1" parent="1">
          <mxGeometry width="50" height="50" relative="1" as="geometry">
            <mxPoint x="379" y="440" as="sourcePoint" />
            <mxPoint x="379" y="500" as="targetPoint" />
          </mxGeometry>
        </mxCell>
        <mxCell id="csj1tmw9l9uNEUCIM7JJ-9" value="3rd Pace" style="text;html=1;align=center;verticalAlign=middle;whiteSpace=wrap;rounded=0;" vertex="1" parent="1">
          <mxGeometry x="674" y="506" width="90" height="30" as="geometry" />
        </mxCell>
        <mxCell id="csj1tmw9l9uNEUCIM7JJ-10" value="Loser Race 5" style="text;html=1;align=center;verticalAlign=middle;whiteSpace=wrap;rounded=0;" vertex="1" parent="1">
          <mxGeometry x="674" y="476" width="90" height="30" as="geometry" />
        </mxCell>
        <mxCell id="csj1tmw9l9uNEUCIM7JJ-11" value="" style="endArrow=none;html=1;rounded=0;" edge="1" parent="1">
          <mxGeometry width="50" height="50" relative="1" as="geometry">
            <mxPoint x="637" y="506" as="sourcePoint" />
            <mxPoint x="797" y="506" as="targetPoint" />
          </mxGeometry>
        </mxCell>
      </root>
    </mxGraphModel>
  </diagram>
</mxfile>
